<?xml version="1.0" encoding="UTF-8" standalone="no"?>
<!DOCTYPE svg PUBLIC "-//W3C//DTD SVG 1.1//EN" "http://www.w3.org/Graphics/SVG/1.1/DTD/svg11.dtd">
<svg width="100%" height="100%" viewBox="0 0 512 512" version="1.1" xmlns="http://www.w3.org/2000/svg" xmlns:xlink="http://www.w3.org/1999/xlink" xml:space="preserve" xmlns:serif="http://www.serif.com/" style="fill-rule:evenodd;clip-rule:evenodd;stroke-linejoin:round;stroke-miterlimit:2;">
    <g transform="matrix(0.520619,0,0,0.565096,121.119,78.5737)">
        <ellipse cx="261" cy="259" rx="194" ry="170" style="fill:rgb(237,96,44);"/>
    </g>
    <g transform="matrix(0.322581,0,0,0.322581,173.419,143.419)">
        <path d="M256.936,312L255.064,312C242.344,312 232,322.344 232,335.064C232,336.024 232.064,336.984 232.176,337.92L239.064,393.064C240.144,401.576 247.424,408 256,408C264.576,408 271.856,401.576 272.928,393.056L279.816,337.936C279.936,336.984 280,336.024 280,335.064C280,322.344 269.656,312 256.936,312ZM263.944,335.936L257.056,391.064C256.912,392.128 255.088,392.12 254.944,391.072L248.056,335.92C248.016,335.64 248,335.352 248,335.064C248,331.168 251.168,328 255.064,328L256.936,328C260.832,328 264,331.168 264,335.064C264,335.352 263.984,335.64 263.944,335.936Z" style="fill:white;fill-rule:nonzero;"/>
        <path d="M256,424C242.768,424 232,434.768 232,448C232,461.232 242.768,472 256,472C269.232,472 280,461.232 280,448C280,434.768 269.232,424 256,424ZM256,456C251.584,456 248,452.416 248,448C248,443.584 251.584,440 256,440C260.416,440 264,443.584 264,448C264,452.416 260.416,456 256,456Z" style="fill:white;fill-rule:nonzero;"/>
        <path d="M488,296L488,234.96C488,206.384 466.576,182.456 438.176,179.304L414.28,176.648L411.672,167.152C419.68,161.472 425.856,153.408 429.2,144L440,144C453.232,144 464,133.232 464,120C464,114.288 461.912,109.112 458.568,104.984C462.104,97.8 464,89.936 464,81.84L464,80C464,63.968 452.152,50.648 436.744,48.352L431.504,39.616C419.8,20.12 398.4,8 375.656,8C358.264,8 341.912,14.776 329.616,27.072L324.616,32.072C311.32,45.368 304,63.04 304,81.84C304,89.92 305.896,97.792 309.432,104.976C306.088,109.104 304,114.288 304,120C304,133.232 314.768,144 328,144L338.8,144C342.144,153.416 348.32,161.472 356.328,167.152L353.72,176.648L329.824,179.304C301.424,182.456 280,206.384 280,234.96L280,270.952C272.928,266.52 264.656,264 256,264C238.288,264 222.112,274.424 214.792,290.544L214.792,290.536L212.304,296L183.792,296C203.296,281.4 216,258.184 216,232C216,214.816 210.32,197.768 200,184L168.784,142.376L182.872,93.032C183.624,90.44 184,87.752 184,85.056C184,69.032 170.968,56 154.944,56L133.056,56C121.752,56 112.04,62.552 107.24,72L86.624,72C69.744,72 56,85.744 56,102.624C56,110.8 59.184,118.496 64.968,124.28L85.44,144.752L56,184C45.68,197.768 40,214.816 40,232C40,258.184 52.704,281.4 72.208,296L24,296C15.176,296 8,303.176 8,312L8,328C8,336.824 15.176,344 24,344L190.488,344L148.064,437.336C145.368,443.256 144,449.56 144,456.072L144,458.728C144,483.688 164.312,504 189.272,504L322.728,504C347.688,504 368,483.688 368,458.728L368,456.072C368,449.568 366.632,443.256 363.936,437.336L321.512,344L488,344C496.824,344 504,336.824 504,328L504,312C504,303.176 496.824,296 488,296ZM405.6,197.712L402.664,215.352L395.312,208L405.6,197.712ZM440,128L432,128L432,112L440,112C444.416,112 448,115.584 448,120C448,124.416 444.416,128 440,128ZM328,128C323.584,128 320,124.416 320,120C320,115.584 323.584,112 328,112L336,112L336,128L328,128ZM345.376,80L336,80L336,96L328,96C326.328,96 324.704,96.176 323.128,96.504C321.104,91.896 320,86.928 320,81.84C320,67.312 325.656,53.656 335.928,43.376L340.928,38.376C350.2,29.112 362.536,24 375.656,24C392.816,24 408.952,33.144 417.784,47.848L427.472,64L432,64C440.824,64 448,71.176 448,80L448,81.84C448,86.936 446.896,91.896 444.872,96.496C443.296,96.176 441.672,96 440,96L432,96L432,80L422.624,80C410.352,80 398.336,75.024 389.656,66.344L383.856,60.872L378.2,66.48C369.408,75.192 357.752,80 345.376,80ZM352,95.656C363.672,94.432 374.664,89.976 384,82.656C393.208,89.84 404.376,94.384 416,95.64L416,128C416,145.648 401.648,160 384,160C366.352,160 352,145.648 352,128L352,95.656ZM384,176C388.512,176 392.864,175.328 397.008,174.16L399.056,181.632L384,196.688L368.944,181.632L370.992,174.16C375.136,175.328 379.488,176 384,176ZM372.688,208L365.336,215.352L362.4,197.712L372.688,208ZM331.584,195.208L345.496,193.664L354.656,248.648L384,219.312L413.336,248.648L422.496,193.664L436.408,195.208C456.704,197.464 472,214.544 472,234.96L472,296L299.688,296L297.208,290.544C296.856,289.768 296.392,289.072 296,288.32L296,234.96C296,214.544 311.296,197.464 331.584,195.208ZM72,102.624C72,94.56 78.56,88 86.624,88L104,88L104,104L120,104L120,85.056C120,77.856 125.856,72 133.056,72L154.944,72C162.144,72 168,77.856 168,85.056C168,86.264 167.832,87.472 167.496,88.64L153.96,136L99.312,136L76.28,112.968C73.56,110.248 72,106.48 72,102.624ZM56,232C56,218.248 60.544,204.608 68.8,193.592L100,152L156,152L187.2,193.592C195.456,204.608 200,218.248 200,232C200,267.288 171.288,296 136,296L120,296C84.712,296 56,267.288 56,232ZM24,328L24,312L205.032,312L197.76,328L24,328ZM352,456.072L352,458.728C352,474.864 338.864,488 322.728,488L189.272,488C173.136,488 160,474.864 160,458.728L160,456.072C160,451.872 160.88,447.792 162.624,443.96L229.352,297.16L229.352,297.152C234.088,286.736 244.544,280 256,280C267.456,280 277.912,286.736 282.648,297.168L349.376,443.968C351.12,447.792 352,451.864 352,456.072ZM488,328L314.24,328L306.968,312L488,312L488,328Z" style="fill:white;fill-rule:nonzero;"/>
        <path d="M136,280L136,262.84C145.24,259.912 152,251.36 152,241.168C152,232.464 147.168,224.648 139.376,220.744L123.784,212.944C121.448,211.784 120,209.44 120,206.832C120,203.072 123.072,200 126.832,200L129.16,200C132.928,200 136,203.072 136,206.832L136,208L152,208L152,206.832C152,196.632 145.24,188.08 136,185.16L136,168L120,168L120,185.16C110.76,188.088 104,196.64 104,206.832C104,215.536 108.832,223.352 116.624,227.256L132.216,235.056C134.552,236.216 136,238.56 136,241.168C136,244.928 132.928,248 129.168,248L126.84,248C123.072,248 120,244.928 120,241.168L120,232L104,232L104,241.168C104,251.368 110.76,259.92 120,262.84L120,280L136,280Z" style="fill:white;fill-rule:nonzero;"/>
    </g>
</svg>
