<?xml version="1.0" encoding="UTF-8" standalone="no"?>
<!DOCTYPE svg PUBLIC "-//W3C//DTD SVG 1.1//EN" "http://www.w3.org/Graphics/SVG/1.1/DTD/svg11.dtd">
<svg width="100%" height="100%" viewBox="0 0 512 512" version="1.1" xmlns="http://www.w3.org/2000/svg" xmlns:xlink="http://www.w3.org/1999/xlink" xml:space="preserve" xmlns:serif="http://www.serif.com/" style="fill-rule:evenodd;clip-rule:evenodd;stroke-linejoin:round;stroke-miterlimit:2;">
    <g transform="matrix(0.381443,0,0,0.412155,160.443,150.185)">
        <ellipse cx="261" cy="259" rx="194" ry="170" style="fill:rgb(237,96,44);"/>
    </g>
    <g transform="matrix(0.221865,0,0,0.221865,199.173,199.19)">
        <path d="M265.424,92.92C242.56,70.06 211.519,57.205 179.188,57.205C112.278,57.205 57.22,112.263 57.22,179.173C57.22,246.082 112.278,301.141 179.188,301.141C246.098,301.141 301.156,246.082 301.156,179.173C301.156,179.173 301.156,179.172 301.156,179.172C301.241,146.816 288.365,115.737 265.424,92.92ZM255.528,255.528C235.286,275.77 207.802,287.153 179.176,287.153C119.94,287.153 71.196,238.409 71.196,179.173C71.196,119.937 119.94,71.193 179.176,71.193C238.412,71.193 287.155,119.936 287.156,179.172C287.232,207.815 275.836,235.329 255.528,255.528Z" style="fill:white;fill-rule:nonzero;"/>
        <path d="M202.576,93.352C201.955,93.176 201.313,93.087 200.668,93.087C196.828,93.087 193.668,96.247 193.668,100.087C193.668,103.262 195.828,106.058 198.9,106.86C229.014,115.135 250.967,141.36 253.816,172.46C254.133,176.05 257.176,178.838 260.78,178.84C260.988,178.84 261.196,178.832 261.404,178.816C264.999,178.496 267.788,175.448 267.788,171.84C267.788,171.631 267.779,171.423 267.76,171.216C264.375,134.303 238.318,103.177 202.576,93.352Z" style="fill:white;fill-rule:nonzero;"/>
        <path d="M170.6,90.644C162.181,91.447 153.921,93.454 146.072,96.604C143.321,97.613 141.482,100.246 141.482,103.176C141.482,107.016 144.642,110.176 148.482,110.176C149.442,110.176 150.392,109.979 151.272,109.596C157.879,106.945 164.833,105.257 171.92,104.584C175.493,104.242 178.254,101.204 178.254,97.614C178.254,93.773 175.093,90.612 171.252,90.612C171.029,90.612 170.806,90.623 170.584,90.644L170.6,90.644Z" style="fill:white;fill-rule:nonzero;"/>
        <path d="M485.244,425.6L377.644,318C370.271,310.598 359.446,307.732 349.376,310.516L310.728,271.864C329.829,244.742 340.085,212.367 340.085,179.194C340.085,90.905 267.435,18.254 179.145,18.254C136.49,18.254 95.537,35.212 65.368,65.368C35.188,95.54 18.213,136.511 18.213,179.186C18.213,267.475 90.864,340.126 179.153,340.126C212.343,340.126 244.734,329.859 271.864,310.74L310.516,349.388C307.732,359.457 310.598,370.28 318,377.652L425.6,485.252C436.908,496.536 455.492,496.536 466.8,485.252L485.264,466.788C496.533,455.474 496.524,436.903 485.244,425.6ZM75.264,283.08C47.716,255.532 32.224,218.13 32.224,179.172C32.224,98.559 98.559,32.224 179.172,32.224C218.13,32.224 255.532,47.716 283.08,75.264C310.628,102.812 326.12,140.214 326.12,179.172C326.12,259.785 259.785,326.12 179.172,326.12C140.214,326.12 102.812,310.628 75.264,283.08ZM283.02,302.096C286.436,299.2 289.776,296.184 292.98,292.98C296.184,289.776 299.2,286.436 302.096,283.02L336.8,317.708C336.696,317.812 336.584,317.9 336.48,318L318,336.46C317.9,336.564 317.812,336.68 317.708,336.784L283.02,302.096ZM475.344,456.896L456.884,475.356C451.009,481.21 441.363,481.21 435.488,475.356L327.888,367.756C325.052,364.921 323.457,361.07 323.457,357.06C323.457,353.05 325.052,349.199 327.888,346.364L346.352,327.904C349.186,325.067 353.036,323.471 357.046,323.471C361.056,323.471 364.906,325.067 367.74,327.904L475.34,435.504C481.189,441.374 481.191,451.011 475.344,456.884L475.344,456.896Z" style="fill:white;fill-rule:nonzero;"/>
    </g>
</svg>
