<?xml version="1.0" encoding="UTF-8" standalone="no"?>
<!DOCTYPE svg PUBLIC "-//W3C//DTD SVG 1.1//EN" "http://www.w3.org/Graphics/SVG/1.1/DTD/svg11.dtd">
<svg width="100%" height="100%" viewBox="0 0 512 512" version="1.1" xmlns="http://www.w3.org/2000/svg" xmlns:xlink="http://www.w3.org/1999/xlink" xml:space="preserve" xmlns:serif="http://www.serif.com/" style="fill-rule:evenodd;clip-rule:evenodd;stroke-linejoin:round;stroke-miterlimit:2;">
    <g transform="matrix(0.595703,0,0,0.595703,108.371,99)">
        <g transform="matrix(1.73061,0,0,1.80771,-198.828,-204.755)">
            <ellipse cx="261" cy="259" rx="194" ry="170" style="fill:rgb(237,96,44);"/>
        </g>
        <path d="M463.425,71.503L371.77,71.503L371.77,41.418C371.77,37.279 368.415,33.923 364.274,33.923C360.134,33.923 356.779,37.279 356.779,41.418L356.779,71.503L325.729,71.503C321.588,71.503 318.233,74.859 318.233,78.999C318.233,83.139 321.588,86.495 325.729,86.495L356.779,86.495L356.779,118.236L351.153,118.236C343.297,118.236 336.905,124.627 336.905,132.482L336.905,220.728C336.905,228.583 343.297,234.974 351.153,234.974L356.779,234.974L356.779,294.443C356.779,298.582 360.134,301.938 364.274,301.938C368.415,301.938 371.77,298.582 371.77,294.443L371.77,234.974L377.396,234.974C385.251,234.974 391.643,228.582 391.643,220.728L391.643,132.482C391.643,124.626 385.251,118.236 377.396,118.236L371.77,118.236L371.77,86.495L463.425,86.495C481.437,86.495 496.092,101.149 496.092,119.161L496.092,375.716L15.908,375.716L15.908,119.162C15.908,101.15 30.562,86.496 48.575,86.496L179.975,86.496L179.975,101.125L174.349,101.125C166.493,101.125 160.103,107.516 160.103,115.371L160.103,203.617C160.103,211.473 166.494,217.863 174.349,217.863L179.975,217.863L179.975,284.1C179.975,288.24 183.331,291.596 187.471,291.596C191.611,291.596 194.967,288.24 194.967,284.1L194.967,217.863L200.593,217.863C208.448,217.863 214.839,211.472 214.839,203.617L214.839,115.371C214.839,107.515 208.447,101.125 200.593,101.125L194.967,101.125L194.967,86.495L226.017,86.495C230.157,86.495 233.513,83.139 233.513,78.999C233.513,74.859 230.157,71.503 226.017,71.503L194.967,71.503L194.967,67.801C194.967,63.661 191.611,60.305 187.471,60.305C183.331,60.305 179.975,63.661 179.975,67.801L179.975,71.503L48.575,71.503C22.296,71.503 0.917,92.882 0.917,119.161L0.917,383.212C0.917,409.491 22.296,430.87 48.575,430.87L162.681,430.87L162.681,468.983L138.522,497.008L128.932,497.008C124.792,497.008 121.436,500.364 121.436,504.504C121.436,508.644 124.792,512 128.932,512L382.377,512C386.517,512 389.873,508.644 389.873,504.504C389.873,500.364 386.517,497.008 382.377,497.008L373.477,497.008L349.318,468.983L349.318,430.87L463.425,430.87C489.704,430.87 511.083,409.491 511.083,383.212L511.083,119.162C511.083,92.883 489.704,71.503 463.425,71.503ZM376.652,219.984L351.898,219.984L351.898,133.228L376.652,133.228L376.652,219.984ZM199.847,202.871L175.094,202.871L175.094,116.117L199.847,116.117L199.847,202.871ZM463.425,415.878L311.717,415.878C307.576,415.878 304.221,419.235 304.221,423.374C304.221,427.514 307.576,430.87 311.717,430.87L334.326,430.87L334.326,464.273L315.654,464.273C311.513,464.273 308.158,467.629 308.158,471.769C308.158,475.909 311.513,479.265 315.654,479.265L338.387,479.265L353.683,497.008L158.316,497.008L173.612,479.265L196.345,479.265C200.485,479.265 203.841,475.909 203.841,471.769C203.841,467.629 200.485,464.273 196.345,464.273L177.673,464.273L177.673,430.87L279.772,430.87C283.912,430.87 287.267,427.514 287.267,423.374C287.267,419.235 283.912,415.878 279.772,415.878L48.575,415.878C33.142,415.878 20.184,405.118 16.786,390.708L495.213,390.708C491.816,405.118 478.858,415.878 463.425,415.878Z" style="fill:white;fill-rule:nonzero;"/>
        <path d="M79.196,218.844C75.056,218.844 71.7,222.2 71.7,226.34L71.7,244.436C71.7,252.292 78.09,258.682 85.946,258.682L91.572,258.682L91.572,298.601C91.572,302.741 94.928,306.097 99.068,306.097C103.208,306.097 106.564,302.741 106.564,298.601L106.564,258.682L112.19,258.682C120.046,258.682 126.436,252.292 126.436,244.436L126.436,156.19C126.436,148.334 120.045,141.943 112.19,141.943L106.564,141.943L106.564,129.953C106.564,125.813 103.208,122.457 99.068,122.457C94.928,122.457 91.572,125.813 91.572,129.953L91.572,141.943L85.946,141.943C78.09,141.943 71.7,148.334 71.7,156.19L71.7,194.395C71.7,198.535 75.056,201.891 79.196,201.891C83.336,201.891 86.692,198.535 86.692,194.395L86.692,156.935L111.446,156.935L111.446,243.691L86.692,243.691L86.692,226.341C86.692,222.2 83.336,218.844 79.196,218.844Z" style="fill:white;fill-rule:nonzero;"/>
        <path d="M262.75,203.03L268.377,203.03L268.377,242.949C268.377,247.088 271.732,250.445 275.873,250.445C280.013,250.445 283.369,247.088 283.369,242.949L283.369,203.03L288.995,203.03C296.849,203.03 303.241,196.639 303.241,188.783L303.241,129.988C303.241,125.848 299.886,122.492 295.745,122.492C291.604,122.492 288.249,125.848 288.249,129.988L288.249,188.039L263.495,188.039L263.495,52.309L288.249,52.309L288.249,98.044C288.249,102.183 291.604,105.539 295.745,105.539C299.886,105.539 303.241,102.183 303.241,98.044L303.241,51.564C303.241,43.709 296.849,37.318 288.995,37.318L283.369,37.318L283.369,7.496C283.369,3.356 280.013,0 275.873,0C271.732,0 268.377,3.356 268.377,7.496L268.377,37.318L262.75,37.318C254.894,37.318 248.504,43.709 248.504,51.564L248.504,188.783C248.504,196.64 254.894,203.03 262.75,203.03Z" style="fill:white;fill-rule:nonzero;"/>
        <path d="M407.533,205.505C408.887,208.018 411.47,209.445 414.137,209.445C415.338,209.445 416.557,209.155 417.688,208.545L452.217,189.929L449.733,196.447C448.259,200.316 450.201,204.646 454.07,206.121C454.948,206.454 455.85,206.613 456.737,206.613C459.756,206.613 462.604,204.774 463.743,201.784L472.183,179.63C473.657,175.761 471.715,171.431 467.846,169.956L444.332,160.998C440.464,159.525 436.132,161.466 434.658,165.335C433.184,169.204 435.126,173.534 438.995,175.009L444.447,177.086L410.573,195.35C406.929,197.314 405.568,201.861 407.533,205.505Z" style="fill:white;fill-rule:nonzero;"/>
        <path d="M45.238,351.968C46.456,354.813 49.223,356.517 52.133,356.517C53.116,356.517 54.117,356.322 55.079,355.91L151.804,314.514L160.594,337.544C161.364,339.56 162.964,341.146 164.986,341.898C167.007,342.648 169.256,342.493 171.155,341.469L330.952,255.311C334.596,253.346 335.957,248.799 333.992,245.155C332.028,241.512 327.483,240.15 323.837,242.115L171.556,324.22L163.029,301.879C162.302,299.974 160.829,298.446 158.951,297.651C157.073,296.854 154.953,296.859 153.077,297.661L49.18,342.127C45.375,343.757 43.61,348.162 45.238,351.968Z" style="fill:white;fill-rule:nonzero;"/>
    </g>
</svg>
